<svg width="300" height="300" viewBox="0 0 150 150" xmlns="http://www.w3.org/2000/svg">

<!--  social links icons  -->

<svg id='social-fb' width="13" height="20" viewBox="0 0 13 20" fill="none" xmlns="http://www.w3.org/2000/svg">
<path d="M11.5 0.833252H8.75001C7.53443 0.833252 6.36864 1.30674 5.5091 2.14957C4.64956 2.99239 4.16667 4.1355 4.16667 5.32743V8.02394H1.41667V11.6193H4.16667V18.81H7.83334V11.6193H10.5833L11.5 8.02394H7.83334V5.32743C7.83334 5.08905 7.92992 4.86042 8.10182 4.69186C8.27373 4.52329 8.50689 4.4286 8.75001 4.4286H11.5V0.833252Z" stroke="#666666" stroke-width="1.1" stroke-linecap="round" stroke-linejoin="round"/>
</svg>
<svg id='social-insta' xmlns="http://www.w3.org/2000/svg" width="16" height="16" fill="none" viewBox="0 0 16 16"><g clip-path="url(#a)"><path fill="#666" d="M7.98438.0625c1.33333 0 2.42182.015625 3.26562.046875.7188.03125 1.3594.15625 1.9219.375.5416.208333 1.0104.510417 1.4062.906245.3959.39584.6979.86459.9063 1.40625.2187.5625.3437 1.20313.375 1.92188.0312.84375.0468 1.93229.0468 3.26562 0 1.33334-.0156 2.42183-.0468 3.26563-.0313.7187-.1563 1.3594-.375 1.9219-.2084.5416-.5104 1.0104-.9063 1.4062-.3958.3959-.8646.6979-1.4062.9063-.5625.2187-1.2031.3437-1.9219.375-.8438.0312-1.93229.0468-3.26562.0468-1.33334 0-2.42188-.0156-3.26563-.0468-.71875-.0313-1.35937-.1563-1.92187-.375-.54167-.2084-1.01042-.5104-1.40626-.9063-.395828-.3958-.697912-.8646-.906245-1.4062-.21875-.5625-.34375-1.2032-.375-1.9219C.078125 10.4062.0625 9.31771.0625 7.98437c0-1.33333.015625-2.42187.046875-3.26562.03125-.71875.15625-1.35938.375-1.92188.208333-.54166.510417-1.01041.906245-1.40625.39584-.395828.86459-.697912 1.40626-.906245.5625-.21875 1.20312-.34375 1.92187-.375C5.5625.078125 6.65104.0625 7.98438.0625Zm0 1.03125c-1.38542 0-2.51563.01562-3.39063.04687-.5625.02084-1.08333.1198-1.5625.29688-.75.3125-1.28125.84375-1.59375 1.59375-.17708.47917-.27604 1-.29688 1.5625-.03124.875-.04687 2.00521-.04687 3.39062 0 1.38542.01563 2.51563.04687 3.39063.02084.5625.1198 1.0833.29688 1.5625.3125.75.84375 1.2812 1.59375 1.5937.47917.1771 1 .2761 1.5625.2969.875.0313 2.00521.0469 3.39063.0469 1.38541 0 2.51562-.0156 3.39062-.0469.5625-.0208 1.0833-.1198 1.5625-.2969.75-.3125 1.2813-.8437 1.5937-1.5937.1771-.4792.2761-1 .2969-1.5625.0313-.875.0469-2.00521.0469-3.39063 0-1.38541-.0156-2.51562-.0469-3.39062-.0208-.5625-.1198-1.08333-.2969-1.5625-.3124-.75-.8437-1.28125-1.5937-1.59375-.4792-.17708-1-.27604-1.5625-.29688-.875-.03125-2.00521-.04687-3.39062-.04687Zm0 10.06245c.875 0 1.62239-.3098 2.24222-.9296.6198-.61983.9296-1.36723.9296-2.24223 0-.875-.3098-1.62239-.9296-2.24218-.61983-.61979-1.36722-.92969-2.24222-.92969s-1.6224.3099-2.24219.92969c-.61979.61979-.92969 1.36718-.92969 2.24218 0 .875.3099 1.6224.92969 2.24223.61979.6198 1.36719.9296 2.24219.9296Zm0-7.23433c1.125 0 2.08332.39584 2.87502 1.1875.7916.79167 1.1875 1.75 1.1875 2.875s-.3959 2.08333-1.1875 2.87503c-.7917.7916-1.75002 1.1875-2.87502 1.1875-1.125 0-2.08334-.3959-2.875-1.1875-.79167-.7917-1.1875-1.75003-1.1875-2.87503 0-1.125.39583-2.08333 1.1875-2.875.79166-.79166 1.75-1.1875 2.875-1.1875Zm5.18752-.15625c0 .26042-.0938.48178-.2813.66407-.1875.18229-.4166.27343-.6875.27343-.2604 0-.4817-.09114-.664-.27343-.1823-.18229-.2735-.40365-.2735-.66407 0-.27083.0912-.5.2735-.6875.1823-.1875.4036-.28125.664-.28125s.487.09636.6797.28907c.1927.19271.2891.41927.2891.67968Z"/></g><defs><clipPath id="a"><path fill="#fff" d="M0 0h16v16H0z"/></clipPath></defs></svg>
<svg id='social-vk' xmlns="http://www.w3.org/2000/svg" width="23" height="16" fill="none" viewBox="0 0 23 16"><path fill="#666" d="M.070091 3.99266c0-.62184.42312-.95714 1.269359-1.00591l3.26094.01828c.21886 0 .36476.09145.43772.27435.33557.91447.71127 1.70396 1.1271 2.36847.41582.66452.95932 1.42963 1.63047 2.29532.05836.10974.1532.16461.28451.16461.10214 0 .18238-.04268.24074-.12803l.06566-.20118.02189-3.16407c0-.21947-.06201-.36579-.18603-.43894-.12402-.07316-.35382-.12803-.6894-.16461-.26262-.03658-.39393-.1707-.39393-.40236 0-.04878.00729-.08536.02188-.10974.3064-.79254 1.18182-1.18881 2.62626-1.18881l1.22564-.01829c.5544 0 1.014.11583 1.3787.3475.3648.23166.5472.59745.5472 1.09736v4.1517c.1021.06096.1969.09144.2845.09144.2188 0 .4085-.10973.569-.32921 1.605-1.87771 2.4731-3.13358 2.6044-3.76761 0-.0122.0146-.04268.0438-.09145.1021-.18289.2699-.3414.5033-.47553.2335-.13412.4377-.22556.6128-.27434.0584-.02438.124-.03658.197-.03658h3.3923l.2188.01829c.2918 0 .518.11584.6785.3475.0583.07316.0984.15241.1203.23777.0219.08535.0365.1707.0438.25605.0073.08535.0109.13412.0109.14631v.12803c-.1021.49991-.3611 1.03335-.7769 1.60032-.4158.56697-.9447 1.17967-1.5867 1.83809-.642.65841-1.0432 1.09126-1.2037 1.29854-.1313.14632-.197.28044-.197.40237 0 .09754.0584.20728.1751.32921l3.1953 3.36529c.1751.195.2626.4084.2626.6401 0 .2804-.1313.5121-.3939.695-.2626.1829-.5763.2865-.9411.3109l-.372.0183h-3.3266c-.0146 0-.0438.003-.0876.0091s-.0729.0092-.0875.0092c-.321 0-.6201-.1158-.8973-.3475-.1022-.0976-.7879-.8169-2.0573-2.1582-.0729-.0853-.1751-.1646-.3064-.2377-.0583.1951-.1349.4755-.2298.8413-.0948.3658-.1641.6279-.2079.7864l-.0656.3109c-.1459.4268-.4523.6829-.9192.7682l-.3064.0183H9.74349c-1.211 0-2.41835-.4633-3.62205-1.39-1.20371-.9267-2.28704-2.1246-3.25-3.59387C1.90848 8.18398 1.01117 6.47392.179519 4.52306c-.072952-.15851-.109428-.33531-.109428-.5304ZM13.2233 8.72962c-.3064 0-.5836-.07011-.8317-.21033-.248-.14022-.372-.33226-.372-.57612V3.73661c0-.24386-.073-.41761-.2189-.52125-.1459-.10364-.4012-.15546-.766-.15546l-1.24744.03658c-.62738 0-1.10157.09145-1.42255.27434.64197.25605.96296.67061.96296 1.24368v3.21894c-.02918.30482-.17509.55782-.43771.75901-.26263.20118-.55444.30177-.87542.30177-.43771 0-.77329-.1768-1.00674-.53039C5.86975 6.92506 5.02351 5.55945 4.46908 4.267l-.19697-.47552-2.91077-.01829c-.18968 0-.29546.00914-.31734.02743-.02189.01829-.03283.07011-.03283.15546 0 .10974.01459.22557.04377.3475l.4596 1.02421c1.22559 2.64587 2.55695 4.73081 3.9941 6.25501 1.43715 1.5241 2.84877 2.2861 4.23485 2.2861H11.932c.0876 0 .1532-.0213.197-.064.0438-.0426.0803-.125.1094-.2469l.0438-.1829.4158-1.6094c.1168-.2195.2189-.3658.3064-.439.1605-.1341.3502-.2012.5691-.2012.3501 0 .7076.1768 1.0724.5304l1.8602 1.9753c.1167.1585.2408.2377.3721.2377h3.6111c.4377 0 .6566-.0914.6566-.2743 0-.061-.0219-.1219-.0657-.1829l-3.1734-3.3104c-.248-.25603-.3721-.53037-.3721-.823 0-.29263.1168-.57307.3502-.84131.1897-.24386.5581-.64928 1.1052-1.21625.5472-.56697 1.025-1.09736 1.4335-1.59118.4086-.49381.6785-.9419.8098-1.34427l.0656-.23776c-.0145-.02439-.0218-.06401-.0218-.11888s-.0073-.10059-.0219-.13717h-3.436c-.2189.07316-.394.18289-.5253.32921l-.1313.3475c-.3648.84131-1.3204 2.13986-2.867 3.89564-.3064.24386-.6639.36579-1.0724.36579Z"/></svg>

<!-- studio-->
<svg id='studio-logo' xmlns="http://www.w3.org/2000/svg" width="27" height="34" fill="none" viewBox="0 0 27 34"><path fill="#666" d="M13.6426.015754 13.5 0 0 1.40733V26.0129L13.5 34 27 26.0129V1.40733L13.6426.015754ZM25.2344 25.0151 13.5 31.9573 1.76561 25.0151V14.9293l11.68509 6.9158.0194 1.2533-8.01659-4.7436-.01056 1.2253 8.04645 4.8084.0194 1.2865-8.04472-4.7576-.01057 1.2253L13.5 26.9511l8.1239-4.8329V16.909l3.6193-2.1495-.0088 10.2556Zm0-11.5632-3.2197 1.88-1.4822.8752-7.0659-4.187-.0106 1.2253 6.0397 3.5726-.0528.0315-.1303.0752-.859.4919-4.987-2.9477-.0106 1.2253 3.9361 2.328-.933.6092-.0211.0122-2.9714-1.7416-.0106 1.2253 1.9469 1.1342-1.9874 1.1868-11.6182-6.8721 11.6376-6.95789 11.7995 6.83359Zm0-1.2253L13.4401 5.31075 1.76561 12.2196V2.9897L13.5 1.76442 25.2344 2.9897v9.2369Z"/></svg>
<svg id='studio-logo-hover' xmlns="http://www.w3.org/2000/svg" width="27" height="34" fill="none" viewBox="0 0 27 34"><path fill="#68B738" d="M13.6426.015754 13.5 0 0 1.40733V26.0129L13.5 34 27 26.0129V1.40733L13.6426.015754ZM25.2344 25.0151 13.5 31.9573 1.76561 25.0151V14.9293l11.68509 6.9158.0194 1.2533-8.01659-4.7436-.01056 1.2253 8.04645 4.8084.0194 1.2865-8.04472-4.7576-.01057 1.2253L13.5 26.9511l8.1239-4.8329V16.909l3.6193-2.1495-.0088 10.2556Zm0-11.5632-3.2197 1.88-1.4822.8752-7.0659-4.187-.0106 1.2253 6.0397 3.5726-.0528.0315-.1303.0752-.859.4919-4.987-2.9477-.0106 1.2253 3.9361 2.328-.933.6092-.0211.0122-2.9714-1.7416-.0106 1.2253 1.9469 1.1342-1.9874 1.1868-11.6182-6.8721 11.6376-6.95789 11.7995 6.83359Zm0-1.2253L13.4401 5.31075 1.76561 12.2196V2.9897L13.5 1.76442 25.2344 2.9897v9.2369Z"/></svg>

<!-- logo-text footer -->
<svg id='catenergy-logo--footer' xmlns="http://www.w3.org/2000/svg" width="128" height="24" fill="none" viewBox="0 0 128 24"><g fill="#111" clip-path="url(#a)"><path d="M1.60253 22.0513c-1.134172-1.6831-1.697187-3.701-1.6025-5.7436V7.79487c-.137347-2.06456.390414-4.11826 1.50235-5.84615C2.6041.615385 4.30676 0 6.81067 0c2.50391 0 4.10643.615385 5.10803 1.74359 1.0873 1.42896 1.6222 3.21822 1.5023 5.02564v2.05128H8.51333V6.46154c.03964-.69769-.06268-1.39621-.30047-2.05128-.1271-.26443-.32855-.48386-.57843-.63008-.24988-.14623-.53677-.21255-.82376-.19044-.70109 0-1.20188.20513-1.40219.71795-.22657.72874-.32823 1.49215-.30047 2.25641v10.9744c-.05289.7414.08526 1.4842.40063 2.1538.20031.5128.70109.718 1.40219.718.70109 0 1.10172-.2052 1.30203-.718.22772-.6931.32956-1.4231.30047-2.1538v-2.4616H13.421v2.0513c.1019 1.8369-.4299 3.6521-1.5023 5.1282-1.0016 1.2308-2.70427 1.8462-5.10803 1.8462-2.40375-.1026-4.20657-.718-5.20814-2.0513ZM19.3302.307617h5.7089L29.2457 23.6922h-4.6072l-.8013-4.923h-3.3051l-.8013 4.923h-4.7073L19.3302.307617ZM23.4366 15.6922l-1.2019-9.12817-1.2018 9.12817h2.4037ZM32.7512 4.20505h-3.4053V.307617h11.9186V4.10249h-3.4053V23.6922h-5.108V4.20505ZM50.3787.307617h8.8138V2.76916h-5.7089v7.69234h4.6072v2.3589h-4.6072v8.6154h5.7089v2.359h-8.9139V.307617h.1001ZM61.7966.307617H64L70.5102 15.7948V.307617h2.604V23.6922h-2.0031L64.5008 7.69223V23.6922h-2.7042V.307617ZM76.1189.307617h8.8138V2.76916h-5.7089v7.69234h4.6072v2.3589h-4.6072v8.6154h5.7089v2.359h-8.8138V.307617ZM87.5368.3076h4.6072c1.8124-.128203 3.6135.378111 5.1079 1.4359 1.1018.92307 1.6025 2.5641 1.6025 4.71795 0 2.97435-.9014 4.82055-2.8043 5.43585l3.205 11.6924h-3.1049l-3.0047-10.9744h-2.5039v10.9744h-3.205V.3076h.1002Zm4.4069 10.0513c1.0325.0871 2.0616-.2036 2.9045-.82053.6009-.51282.9014-1.53846.9014-3.07692.0278-.76426-.0739-1.52767-.3005-2.25641-.2254-.52293-.6125-.9554-1.1017-1.23077-.6898-.32191-1.4471-.4629-2.2034-.41026h-1.4022v7.69229h1.2019v.1026ZM102.861 21.9487c-1.041-1.7933-1.53-3.8666-1.402-5.9488V8.20507c-.025-1.48632.143-2.9694.5-4.41026.335-1.0767 1.003-2.01263 1.903-2.66666 1.119-.677875 2.409-.999233 3.706-.92308 2.103 0 3.606.51282 4.507 1.64103 1.037 1.48972 1.533 3.30367 1.402 5.1282v.82051h-3.004v-.71794c.004-.85898-.063-1.71679-.201-2.56411-.084-.53544-.372-1.01484-.801-1.33333-.563-.37839-1.231-.55844-1.903-.51282-.718-.04712-1.429.17124-2.003.61538-.236.2033-.428.4537-.566.73588-.138.28217-.218.59018-.235.90515-.132.91691-.199 1.84241-.201 2.76923v8.71795c-.073 1.3282.131 2.6572.601 3.8974.401.8205 1.202 1.1282 2.404 1.1282.475.0606.956-.0239 1.384-.2429.428-.219.782-.5627 1.02-.9878.529-1.297.769-2.6987.701-4.1026v-1.641h-2.905v-2.359h5.809v11.5898h-2.003l-.3-2.6667c-.263.8937-.809 1.6719-1.554 2.2108-.744.5389-1.642.8077-2.553.7635-.827.0499-1.654-.1114-2.406-.4695-.751-.358-1.404-.9015-1.9-1.5817ZM119.987 15.4871 115.08.410156h3.004L121.59 11.6922 124.995.410156H128L123.092 15.4871v8.2051h-3.004v-8.2051h-.101Z"/></g><defs><clipPath id="a"><path fill="#fff" d="M0 0h128v24H0z"/></clipPath></defs></svg>
<!-- logo-text header-->
<svg id='catenergy-logo--header' xmlns="http://www.w3.org/2000/svg" width="101" height="18" fill="none" viewBox="0 0 101 18"><g fill="#111" clip-path="url(#a)"><path d="M1.26449 16.5385C.36955 15.2762-.074704 13.7627.00001 12.2308V5.84615c-.108375-1.54841.308061-3.08869 1.18545-4.38461C2.05478.461538 3.39829 0 5.37403 0c1.97575 0 3.24022.461538 4.03052 1.30769.85805 1.07172 1.28005 2.41367 1.18545 3.76923v1.53847H6.71754V4.84615c.03127-.52326-.04946-1.04715-.23709-1.53846-.10029-.19831-.25925-.36289-.45642-.47256-.19717-.10966-.42354-.15941-.65-.14282-.55321 0-.94835.15384-1.10641.53846-.17879.54656-.259 1.11911-.23709 1.69231v8.23072c-.04174.5562.06727 1.1132.31612 1.6154.15805.3846.5532.5385 1.10641.5385.55321 0 .86933-.1539 1.02739-.5385.17968-.5198.26004-1.0673.23709-1.6154v-1.8461H10.59v1.5385c.0804 1.3776-.3392 2.739-1.18545 3.8461-.7903.9231-2.1338 1.3846-4.03052 1.3846-1.89671-.0769-3.31925-.5384-4.10954-1.5384ZM15.2527.23077h4.5047l3.3193 17.53843h-3.6354l-.6322-3.6923h-2.608l-.6322 3.6923h-3.7144L15.2527.23077ZM18.493 11.7692l-.9484-6.84612-.9483 6.84612h1.8967ZM25.8427 3.15385h-2.687V.23077h9.4045v2.84615h-2.687V17.7692h-4.0305V3.15385ZM39.752.23077h6.9546v1.84615h-4.5047v5.76923h3.6353v1.76924h-3.6353v6.46151h4.5047v1.7693h-7.0337V.23077h.0791ZM48.7613.23077H50.5l5.1369 11.61543V.23077h2.0548V17.7692h-1.5806l-5.216-11.99997V17.7692h-2.1338V.23077ZM60.0626.23077h6.9546v1.84615h-4.5047v5.76923h3.6354v1.76924h-3.6354v6.46151h4.5047v1.7693h-6.9546V.23077ZM69.072.23077h3.6354c1.4301-.096152 2.8513.283583 4.0305 1.07692.8693.69231 1.2645 1.92308 1.2645 3.53847 0 2.23076-.7113 3.61538-2.2129 4.07692l2.529 8.76922h-2.4499l-2.3709-8.23076h-1.9758v8.23076H68.993V.23077h.079Zm3.4773 7.53846c.8147.06535 1.6268-.15271 2.2919-.61538.4742-.38462.7112-1.15385.7112-2.30769.0219-.5732-.0583-1.14576-.237-1.69231-.1779-.39219-.4834-.71655-.8694-.92308-.5443-.24143-1.1418-.34717-1.7386-.30769H71.601v5.76923h.9483v.07692ZM81.1635 16.4615c-.8215-1.3449-1.2071-2.8998-1.1064-4.4615V6.15384c-.0195-1.11473.1134-2.22704.3951-3.30769.2645-.80752.7915-1.50947 1.5016-1.999998.8824-.508404 1.9004-.749423 2.9241-.692308 1.6596 0 2.8451.384616 3.5564 1.230766.8181 1.1173 1.2095 2.47776 1.1064 3.84616v.61538h-2.3709v-.53846c.0036-.64423-.0493-1.28759-.1581-1.92308-.0666-.40158-.2939-.76113-.6322-1-.4442-.28379-.9714-.41882-1.5016-.38461-.5666-.03534-1.1275.12843-1.5806.46154-.1859.15247-.3378.34027-.4465.5519-.1088.21163-.1719.44264-.1857.67887-.1042.68768-.157 1.3818-.1581 2.07692v6.53847c-.0582.9961.1035 1.9929.4742 2.9231.3161.6154.9484.8461 1.8967.8461.3745.0454.7543-.018 1.0918-.1822.3375-.1643.6176-.422.8049-.7409.4176-.9727.6066-2.0239.5532-3.0769v-1.2307H85.036V9.07692h4.5837v8.69228h-1.5806l-.2371-2c-.2072.6703-.6386 1.2539-1.2257 1.6581-.5871.4042-1.2962.6058-2.0145.5727-.653.0374-1.3053-.0836-1.8985-.3521-.5931-.2685-1.1084-.6762-1.4998-1.1864ZM94.6776 11.6154 90.8052.30769h2.3709l2.766 8.46154 2.687-8.46154H101L97.1275 11.6154v6.1538h-2.3709v-6.1538h-.079Z"/></g><defs><clipPath id="a"><path fill="#fff" d="M0 0h101v18H0z"/></clipPath></defs></svg>

<!-- program`s svg arrow-->
<svg id='programs-svg' xmlns="http://www.w3.org/2000/svg" width="36" height="12" fill="none" viewBox="0 0 36 12"><path stroke="#000" stroke-width="2" d="M0 6h18"/><path fill="#000" d="m24 6-6.75 5.1962V.803848L24 6Z"/></svg>


</svg>
